<?xml version="1.0" standalone="no"?>
<!DOCTYPE svg PUBLIC "-//W3C//DTD SVG 1.1//EN" "http://www.w3.org/Graphics/SVG/1.1/DTD/svg11.dtd">
<!--Generator: Xara Designer (www.xara.com), SVG filter version: 6.0.0.4-->
<svg stroke-width="0.501" stroke-linejoin="bevel" fill-rule="evenodd" xmlns:xlink="http://www.w3.org/1999/xlink" xmlns="http://www.w3.org/2000/svg" version="1.1" overflow="visible" width="269.292pt" height="89.858pt" viewBox="0 0 269.292 89.858">
 <defs>
	</defs>
 <g id="Document" fill="none" stroke="black" font-family="Times New Roman" font-size="16" transform="scale(1 -1)">
  <g id="Spread" transform="translate(0 -89.858)">
   <g id="Layer 1">
    <g id="Group">
     <path d="M 47.805,89.037 C 47.572,88.851 47.574,88.849 47.846,88.981 C 48.002,89.056 48.194,89.079 48.272,89.031 C 48.358,88.977 48.378,88.999 48.324,89.087 C 48.205,89.28 48.094,89.269 47.805,89.037 Z M 48.28,77.273 C 48.263,70.868 48.217,65.524 48.177,65.398 C 48.113,65.193 48.12,65.191 48.241,65.378 C 48.336,65.524 48.366,69.055 48.343,77.253 L 48.311,88.919 L 48.28,77.273 Z M 45.875,88.219 C 45.634,88.08 45.549,88.004 45.687,88.051 C 45.825,88.097 46.035,88.163 46.156,88.198 C 46.276,88.232 46.374,88.31 46.374,88.371 C 46.374,88.512 46.391,88.516 45.875,88.219 Z M 37.752,84.85 C 37.512,84.716 37.383,84.607 37.464,84.607 C 37.696,84.607 38.25,84.885 38.25,85.002 C 38.25,85.132 38.272,85.139 37.752,84.85 Z M 35.529,83.91 C 35.346,83.776 35.364,83.764 35.66,83.821 C 35.849,83.857 36.028,83.926 36.058,83.976 C 36.15,84.124 35.755,84.076 35.529,83.91 Z M 29.055,81.16 C 28.921,81.052 28.887,81.001 28.978,81.049 C 29.07,81.095 29.295,81.179 29.478,81.235 C 29.746,81.315 29.761,81.337 29.555,81.346 C 29.413,81.352 29.188,81.268 29.055,81.16 Z M 18.937,76.915 C 18.731,76.82 18.646,76.742 18.75,76.741 C 18.852,76.741 19.078,76.821 19.25,76.919 C 19.645,77.145 19.434,77.142 18.937,76.915 Z M 17.25,76.169 C 17.078,76.071 16.993,75.991 17.062,75.991 C 17.131,75.991 17.328,76.071 17.499,76.169 C 17.672,76.267 17.756,76.348 17.687,76.348 C 17.619,76.348 17.421,76.267 17.25,76.169 Z M 4.919,70.858 C 4.771,70.798 4.615,70.693 4.573,70.624 C 4.53,70.555 4.665,70.583 4.872,70.687 C 5.08,70.79 5.25,70.899 5.25,70.928 C 5.25,70.992 5.256,70.993 4.919,70.858 Z M 3.403,69.535 C 3.249,69.299 3.147,69.106 3.177,69.106 C 3.264,69.106 3.782,69.865 3.731,69.917 C 3.705,69.943 3.558,69.771 3.403,69.535 Z M 46.281,64.659 C 46.057,64.561 45.875,64.449 45.875,64.411 C 45.875,64.309 46.395,64.486 46.683,64.686 C 46.995,64.902 46.808,64.889 46.281,64.659 Z M 8.93,64.538 C 9.198,64.337 9.427,64.295 9.321,64.467 C 9.284,64.527 9.126,64.609 8.97,64.648 C 8.697,64.717 8.696,64.713 8.93,64.538 Z M 44.281,63.842 C 44.058,63.778 43.875,63.692 43.875,63.652 C 43.875,63.55 44.538,63.725 44.681,63.865 C 44.816,63.998 44.823,63.999 44.281,63.842 Z M 11.124,63.669 C 11.297,63.571 11.493,63.49 11.562,63.49 C 11.631,63.49 11.547,63.571 11.375,63.669 C 11.203,63.767 11.006,63.848 10.937,63.848 C 10.869,63.848 10.953,63.767 11.124,63.669 Z M 12.75,63.017 C 12.852,62.979 13.05,62.896 13.187,62.833 C 13.433,62.719 13.433,62.721 13.194,62.912 C 13.061,63.019 12.864,63.102 12.757,63.097 C 12.588,63.088 12.588,63.077 12.75,63.017 Z M 14.874,62.176 C 14.874,62.141 15.043,62.026 15.249,61.919 C 15.456,61.813 15.624,61.753 15.624,61.788 C 15.624,61.822 15.456,61.937 15.249,62.044 C 15.043,62.151 14.874,62.21 14.874,62.176 Z M 39.891,62.028 C 39.659,61.927 39.5,61.815 39.536,61.779 C 39.572,61.743 39.817,61.828 40.082,61.967 C 40.635,62.26 40.512,62.299 39.891,62.028 Z M 60.983,61.474 C 57.75,60.709 55.964,57.228 57.327,54.349 C 58.101,52.712 58.941,52.033 62.375,50.263 C 64.256,49.294 65.305,48.631 65.492,48.294 C 65.568,48.157 65.775,47.848 65.951,47.607 C 66.678,46.615 66.011,44.813 64.727,44.299 C 62.688,43.484 60.315,44.399 58.746,46.605 C 58.422,47.062 58.41,47.089 57.812,48.712 C 57.495,49.574 57.394,49.731 57.156,49.732 L 56.874,49.732 L 56.874,46.294 C 56.874,42.379 56.873,42.385 57.845,43.357 C 58.479,43.991 58.764,43.995 60.5,43.401 C 67.509,40.999 72.687,48.052 67.282,52.638 C 67.059,52.827 66.844,52.981 66.804,52.981 C 66.765,52.981 66.497,53.143 66.21,53.341 C 65.922,53.538 65.209,53.935 64.625,54.223 C 64.041,54.511 63.45,54.81 63.312,54.886 C 63.174,54.962 62.655,55.244 62.157,55.513 C 59.974,56.692 59.313,58.273 60.479,59.527 C 62.346,61.536 66.237,59.892 67.335,56.631 C 67.662,55.659 67.698,55.606 68.046,55.606 L 68.414,55.606 L 68.332,57.689 C 68.286,58.834 68.25,60.184 68.25,60.689 C 68.25,61.693 67.777,62.106 67.57,61.281 C 67.291,60.169 67.041,60.154 64.933,61.121 C 63.952,61.572 62.096,61.738 60.983,61.474 Z M 181.671,61.419 C 179.714,60.95 178.198,60.17 176.957,58.993 C 176.319,58.388 175.25,57.074 175.25,56.895 C 175.25,56.837 175.105,56.577 174.928,56.317 C 173.3,53.92 173.755,48.964 175.839,46.399 C 178.109,43.606 182.925,42.182 187.062,43.082 C 188.999,43.504 189.99,43.776 190.713,44.084 L 191.497,44.419 L 191.499,46.606 C 191.502,49.655 191.759,50.218 193.156,50.229 C 193.438,50.231 193.5,50.287 193.5,50.544 L 193.5,50.857 L 184.732,50.857 L 184.772,50.575 C 184.806,50.337 184.912,50.282 185.469,50.214 C 186.889,50.041 186.999,49.794 186.999,46.796 L 186.999,44.502 L 186.131,44.304 C 181.475,43.245 178.867,46.022 178.86,52.044 C 178.853,58.753 182.9,62.271 187.464,59.523 C 187.844,59.294 188.172,59.107 188.193,59.107 C 188.501,59.107 190.014,57.074 190.447,56.079 C 190.769,55.336 190.852,55.238 191.156,55.235 L 191.499,55.231 L 191.499,61.606 L 191.206,61.606 C 190.989,61.606 190.811,61.444 190.524,60.982 C 190.095,60.292 189.742,60.171 189.062,60.481 C 186.945,61.443 183.564,61.873 181.671,61.419 Z M 16.946,61.253 C 17.182,61.052 17.75,60.862 17.75,60.985 C 17.75,61.051 17.735,61.107 17.718,61.107 C 17.7,61.107 17.493,61.162 17.257,61.229 C 17.022,61.297 16.881,61.308 16.946,61.253 Z M 37.5,61.034 L 37.187,60.846 L 37.5,60.929 C 37.953,61.049 38.25,61.224 38,61.223 C 37.896,61.223 37.671,61.138 37.5,61.034 Z M 71.375,61.231 L 71.375,56.232 L 71.679,56.232 C 71.942,56.232 72.008,56.326 72.178,56.95 C 72.786,59.173 73.812,59.98 76.035,59.981 L 77.132,59.982 L 77.097,52.513 C 77.055,43.643 77.13,43.981 75.234,43.981 C 74.667,43.981 74.625,43.96 74.625,43.669 L 74.625,43.357 L 84.125,43.357 L 84.125,43.669 C 84.125,43.96 84.083,43.981 83.502,43.981 C 81.552,43.981 81.624,43.651 81.624,52.595 L 81.624,60.004 L 82.968,59.962 C 84.931,59.899 85.873,59.141 86.484,57.13 C 86.727,56.332 86.791,56.232 87.066,56.232 L 87.375,56.232 L 87.375,61.231 L 71.375,61.231 Z M 88.749,60.928 C 88.749,60.657 88.818,60.613 89.343,60.545 C 91.29,60.294 91.187,60.754 91.187,52.231 C 91.187,43.723 91.245,43.981 89.316,43.981 C 88.795,43.981 88.749,43.957 88.749,43.669 L 88.749,43.357 L 104.219,43.357 L 104.363,44.326 C 104.443,44.858 104.561,45.8 104.625,46.419 C 104.69,47.037 104.801,47.847 104.871,48.217 C 105.045,49.126 105.05,49.107 104.625,49.107 C 104.411,49.107 104.25,49.04 104.25,48.953 C 104.25,48.295 103.185,46.512 102.333,45.742 C 100.841,44.394 96.453,43.901 95.857,45.014 C 95.778,45.162 95.696,46.61 95.655,48.571 L 95.586,51.877 L 96.199,51.791 C 97.878,51.553 98.629,50.697 99.129,48.451 C 99.268,47.826 99.327,47.731 99.582,47.731 L 99.875,47.731 L 99.875,57.197 L 99.585,57.142 C 99.343,57.095 99.27,56.962 99.138,56.324 C 98.664,54.031 97.709,52.981 96.094,52.981 L 95.625,52.981 L 95.625,60.007 L 97.781,59.959 C 100.134,59.907 100.571,59.787 101.624,58.9 C 102.048,58.543 102.873,56.993 102.876,56.548 C 102.88,55.953 103.02,55.732 103.392,55.732 L 103.755,55.732 L 103.721,58.45 L 103.687,61.169 L 96.219,61.201 L 88.749,61.234 L 88.749,60.928 Z M 106.5,60.884 C 106.5,60.514 106.508,60.51 107.284,60.461 C 108.066,60.411 108.615,60.153 108.838,59.731 C 108.957,59.508 109.048,46.028 108.937,45.263 C 108.828,44.52 108.273,44.107 107.254,44.015 C 106.564,43.953 106.5,43.922 106.5,43.652 L 106.5,43.357 L 115.749,43.357 L 115.749,43.669 C 115.749,43.947 115.698,43.981 115.28,43.982 C 113.441,43.985 113.375,44.128 113.375,48.067 L 113.375,51.357 L 113.844,51.351 C 114.262,51.346 114.359,51.278 114.75,50.717 C 114.99,50.371 115.369,49.854 115.592,49.567 C 115.815,49.279 115.998,48.979 115.998,48.898 C 115.999,48.818 116.047,48.733 116.105,48.711 C 116.163,48.688 116.457,48.304 116.758,47.857 C 117.059,47.41 117.366,46.988 117.441,46.919 C 117.516,46.85 117.878,46.344 118.245,45.794 C 118.613,45.244 119.021,44.674 119.152,44.528 C 119.283,44.382 119.492,44.072 119.616,43.84 L 119.842,43.419 L 130.78,43.387 L 141.719,43.355 L 141.861,44.512 C 141.939,45.148 142.059,46.4 142.128,47.294 C 142.197,48.188 142.285,49.078 142.326,49.272 C 142.499,50.109 141.609,49.661 141.351,48.781 C 140.414,45.59 139.082,44.57 135.762,44.502 C 132.459,44.433 132.75,43.671 132.75,52.414 C 132.75,60.767 132.648,60.319 134.593,60.542 C 135.311,60.624 135.375,60.655 135.375,60.933 L 135.375,61.234 L 130.593,61.202 C 125.823,61.169 125.812,61.168 125.774,60.903 C 125.74,60.666 125.815,60.628 126.462,60.548 C 127.134,60.466 127.938,60.111 128.154,59.8 C 128.304,59.586 128.27,45.037 128.118,44.705 C 127.805,44.017 125.831,43.734 124.821,44.232 C 124.377,44.45 123.431,45.511 122.937,46.345 C 122.868,46.462 122.641,46.779 122.433,47.05 C 122.223,47.322 121.886,47.791 121.683,48.094 C 121.479,48.396 121.2,48.798 121.062,48.988 C 119.096,51.703 119.105,51.685 119.58,51.855 C 119.777,51.925 120.035,52.038 120.154,52.107 C 120.273,52.175 120.453,52.231 120.553,52.231 C 120.795,52.231 121.841,53.146 122.248,53.714 C 123.486,55.443 123.038,58.406 121.329,59.779 C 119.773,61.028 119.112,61.13 112.093,61.201 L 106.5,61.257 L 106.5,60.884 Z M 143.709,61.15 C 143.409,60.849 143.655,60.639 144.464,60.505 C 146.207,60.216 146.097,60.765 146.112,52.259 C 146.127,43.752 146.179,43.981 144.234,43.981 C 143.667,43.981 143.625,43.96 143.625,43.669 L 143.625,43.357 L 153.125,43.357 L 153.125,43.669 C 153.125,43.959 153.081,43.981 152.532,43.981 C 150.576,43.981 150.619,43.792 150.627,52.434 C 150.634,60.748 150.537,60.31 152.413,60.538 C 153.066,60.617 153.135,60.654 153.101,60.898 L 153.062,61.169 L 148.428,61.202 C 145.88,61.22 143.756,61.196 143.709,61.15 Z M 153.897,60.891 C 153.932,60.595 154.009,60.538 154.476,60.458 C 155.147,60.345 155.708,60.001 156.16,59.427 L 156.508,58.985 L 156.472,52.139 C 156.438,45.531 156.429,45.28 156.185,44.871 C 155.897,44.39 155.083,43.999 154.344,43.989 C 153.929,43.982 153.875,43.945 153.875,43.669 L 153.875,43.357 L 160.374,43.357 L 160.374,43.653 C 160.374,43.915 160.306,43.957 159.781,44.007 C 157.728,44.206 157.749,44.125 157.749,51.364 L 157.749,57.405 L 158.031,57.03 C 158.388,56.553 158.497,56.421 159.117,55.717 C 159.396,55.401 159.624,55.08 159.624,55.005 C 159.624,54.931 159.698,54.824 159.788,54.769 C 159.878,54.714 160.267,54.27 160.653,53.782 C 161.04,53.293 161.586,52.618 161.866,52.282 C 162.147,51.945 162.513,51.5 162.679,51.294 C 162.846,51.088 163.171,50.694 163.403,50.419 C 163.635,50.144 164.181,49.469 164.616,48.919 C 165.051,48.369 165.484,47.874 165.579,47.819 C 165.672,47.764 165.75,47.658 165.75,47.583 C 165.75,47.509 165.978,47.188 166.257,46.87 C 166.536,46.554 166.806,46.238 166.854,46.169 C 166.903,46.1 167.42,45.46 168.003,44.747 C 168.585,44.034 169.165,43.317 169.291,43.153 C 169.991,42.247 169.977,42.111 170.026,50.888 C 170.078,60.373 170.014,60.013 171.715,60.4 C 172.35,60.544 172.437,60.6 172.437,60.867 L 172.437,61.169 L 169.406,61.203 L 166.374,61.236 L 166.374,60.934 C 166.374,60.61 166.578,60.483 167.103,60.48 C 167.638,60.476 168.388,59.971 168.676,59.419 C 168.928,58.936 169.136,53.136 168.978,50.986 L 168.937,50.428 L 168.249,51.284 C 167.871,51.756 167.45,52.295 167.312,52.483 C 167.021,52.883 164.646,55.87 164.183,56.419 C 164.009,56.626 163.443,57.328 162.925,57.982 C 162.408,58.635 161.608,59.633 161.149,60.2 L 160.314,61.231 L 153.858,61.231 L 153.897,60.891 Z M 35.793,60.358 C 35.646,60.298 35.49,60.193 35.448,60.124 C 35.385,60.022 36.06,60.29 36.239,60.439 C 36.333,60.516 36.068,60.468 35.793,60.358 Z M 116.386,59.81 C 117.659,59.355 118.388,58.212 118.476,56.531 C 118.62,53.798 117.277,52.482 114.348,52.482 L 113.375,52.482 L 113.375,59.982 L 114.656,59.976 C 115.368,59.973 116.136,59.899 116.386,59.81 Z M 33.531,59.409 C 33.307,59.311 33.125,59.206 33.125,59.176 C 33.125,59.083 33.87,59.373 33.945,59.494 C 34.028,59.629 34.04,59.631 33.531,59.409 Z M 23.43,58.543 C 23.563,58.44 23.763,58.357 23.874,58.357 C 23.984,58.357 24.142,58.3 24.225,58.232 C 24.319,58.154 24.317,58.171 24.219,58.278 C 24.132,58.372 23.865,58.512 23.625,58.588 C 23.226,58.716 23.209,58.711 23.43,58.543 Z M 97.321,38.535 C 96.752,37.965 97.384,37.177 98.171,37.475 C 98.565,37.625 98.664,38.517 98.302,38.656 C 97.953,38.79 97.523,38.737 97.321,38.535 Z M 103.937,38.545 C 103.731,38.446 103.403,38.307 103.209,38.235 C 102.763,38.071 102.786,37.647 103.238,37.711 C 103.656,37.771 103.746,37.552 103.748,36.46 L 103.749,35.502 L 103.238,35.703 C 101.11,36.538 99.012,33.55 100.097,31.228 C 100.755,29.82 102.339,29.317 103.374,30.188 L 103.749,30.504 L 103.749,30.118 C 103.749,29.626 103.858,29.631 104.98,30.168 C 105.807,30.565 106.135,30.987 105.483,30.816 C 104.905,30.665 104.874,30.873 104.874,34.928 L 104.874,38.731 L 104.593,38.729 C 104.439,38.727 104.143,38.645 103.937,38.545 Z M 152.25,38.413 C 151.513,38.102 151.248,37.625 151.86,37.711 C 152.279,37.77 152.37,37.553 152.373,36.499 C 152.375,35.6 152.367,35.58 152.094,35.666 C 150.12,36.288 148.417,34.829 148.449,32.544 C 148.479,30.511 150.386,29.076 151.786,30.033 C 152.368,30.43 152.375,30.43 152.375,30.044 C 152.375,29.634 152.574,29.644 153.567,30.109 C 154.327,30.464 154.74,30.982 154.138,30.824 C 153.576,30.677 153.564,30.754 153.526,34.852 L 153.489,38.731 L 153.213,38.718 C 153.061,38.71 152.628,38.573 152.25,38.413 Z M 184.937,38.482 C 184.662,38.354 184.338,38.218 184.218,38.182 C 183.84,38.065 183.965,37.751 184.406,37.708 L 184.812,37.669 L 184.812,30.553 L 184.406,30.437 C 183.48,30.172 183.937,29.982 185.499,29.982 C 187.062,29.982 187.518,30.172 186.594,30.437 L 186.187,30.553 L 186.121,38.731 L 185.779,38.724 C 185.591,38.719 185.212,38.61 184.937,38.482 Z M 77.625,38.2 C 77.625,38.082 77.787,37.979 78.05,37.93 C 78.633,37.82 78.624,37.873 78.624,34.169 C 78.624,30.685 78.604,30.481 78.246,30.481 C 77.886,30.481 77.625,30.344 77.625,30.156 C 77.625,30.015 77.973,29.982 79.448,29.982 C 81.572,29.982 81.816,30.15 80.281,30.557 C 80.166,30.588 80.124,31.03 80.124,32.227 L 80.124,33.856 L 80.43,33.856 C 80.662,33.856 80.845,33.692 81.185,33.181 C 81.432,32.809 81.716,32.437 81.816,32.353 C 81.917,32.269 82,32.137 82,32.06 C 82.001,31.983 82.183,31.711 82.407,31.458 C 82.629,31.204 82.966,30.769 83.154,30.49 L 83.497,29.982 L 84.686,29.982 C 85.791,29.982 85.875,29.999 85.875,30.232 C 85.875,30.436 85.791,30.481 85.419,30.481 C 84.855,30.481 84.207,31.12 83.033,32.829 L 82.253,33.964 L 82.68,34.105 C 84.404,34.674 84.577,37.227 82.948,38.071 C 82.377,38.368 77.625,38.482 77.625,38.2 Z M 157.625,38.186 C 157.625,38.051 157.731,37.981 157.937,37.981 C 158.716,37.981 158.75,37.822 158.75,34.122 C 158.75,30.335 158.787,30.472 157.719,30.366 C 157.667,30.36 157.625,30.267 157.625,30.158 C 157.625,29.81 162.705,29.96 163.625,30.337 C 166.68,31.585 166.825,36.585 163.845,37.922 C 162.856,38.366 157.625,38.589 157.625,38.186 Z M 227.625,38.169 C 227.625,38.049 227.748,37.98 227.968,37.978 C 228.797,37.968 228.808,37.923 228.851,34.492 C 228.897,30.823 228.861,30.6 228.187,30.412 C 227.13,30.115 227.534,29.982 229.489,29.982 C 231.03,29.982 231.375,30.014 231.375,30.158 C 231.375,30.267 231.18,30.367 230.867,30.421 C 230.151,30.541 230.124,30.676 230.124,34.186 C 230.124,37.732 230.183,37.975 231.031,37.98 C 231.252,37.981 231.375,38.048 231.375,38.169 C 231.375,38.327 231.083,38.356 229.5,38.356 C 227.916,38.356 227.625,38.327 227.625,38.169 Z M 81.446,37.573 C 83.371,37.07 82.508,34.357 80.423,34.357 L 80.124,34.357 L 80.124,35.971 C 80.124,37.149 80.167,37.601 80.281,37.643 C 80.534,37.737 80.903,37.714 81.446,37.573 Z M 162.285,37.548 C 165.648,36.864 164.752,30.613 161.291,30.608 C 160.022,30.606 160.125,30.291 160.125,34.174 L 160.125,37.59 L 160.468,37.636 C 160.95,37.699 161.728,37.662 162.285,37.548 Z M 222.399,37.075 C 222.265,36.596 221.555,35.752 221.156,35.596 C 220.701,35.421 220.802,35.107 221.312,35.107 L 221.75,35.107 L 221.75,30.74 L 222.138,30.298 C 222.79,29.555 223.822,29.797 224.357,30.817 C 224.619,31.317 224.309,31.416 223.867,30.974 C 223.205,30.312 223.029,30.784 223.012,33.263 L 222.999,35.107 L 223.625,35.107 C 224.166,35.107 224.25,35.14 224.25,35.356 C 224.25,35.573 224.166,35.607 223.625,35.607 L 222.999,35.607 L 222.999,36.544 C 222.999,37.611 222.636,37.933 222.399,37.075 Z M 87.69,35.657 C 86.211,35.116 85.581,32.991 86.367,31.201 C 87.209,29.283 89.861,29.338 90.678,31.291 C 91.072,32.235 90.753,32.618 90.263,31.788 C 89.457,30.423 87.345,31.114 87.154,32.806 L 87.092,33.357 L 90.875,33.357 L 90.875,33.798 C 90.875,35.355 89.329,36.257 87.69,35.657 Z M 92.631,35.682 C 90.999,35.092 91.385,33.232 93.332,32.303 C 94.487,31.752 94.862,30.975 94.188,30.533 C 93.525,30.099 92.573,30.644 92.255,31.638 C 91.951,32.589 91.647,32.267 91.668,31.015 L 91.687,29.924 L 92.375,29.875 C 94.245,29.744 94.401,29.765 94.968,30.221 C 96.297,31.29 95.881,32.471 93.785,33.577 C 93.229,33.87 92.741,34.199 92.7,34.306 C 92.183,35.654 94.122,35.611 94.69,34.263 C 95.016,33.491 95.25,33.739 95.25,34.857 C 95.25,35.865 95.139,36.07 94.784,35.716 L 94.24,35.716 C 93.732,35.893 93.184,35.881 92.631,35.682 Z M 97.625,35.709 C 97.453,35.637 97.101,35.492 96.843,35.386 C 96.281,35.155 96.22,34.857 96.735,34.857 C 97.209,34.857 97.246,34.695 97.248,32.575 C 97.25,30.771 97.122,30.357 96.562,30.357 C 96.459,30.357 96.375,30.272 96.375,30.169 C 96.375,29.963 99.171,29.879 99.297,30.082 C 99.378,30.214 99.225,30.416 99.031,30.432 C 98.472,30.476 98.499,30.337 98.499,33.169 L 98.499,35.857 L 98.218,35.848 C 98.064,35.844 97.797,35.781 97.625,35.709 Z M 107.852,35.715 C 105.849,35.151 105.462,31.35 107.291,30.2 C 108.686,29.324 110.271,29.887 110.803,31.448 C 111.06,32.205 110.865,32.474 110.46,31.92 C 110.004,31.297 109.783,31.124 109.325,31.038 C 108.434,30.871 107.313,31.842 107.226,32.857 L 107.187,33.294 L 109.062,33.357 L 110.937,33.419 L 110.907,33.906 C 110.819,35.358 109.453,36.167 107.852,35.715 Z M 112.187,35.585 C 111.843,35.449 111.462,35.306 111.339,35.269 C 111.031,35.174 111.14,34.928 111.509,34.879 C 112.046,34.808 112.125,34.549 112.125,32.848 C 112.125,30.775 112.07,30.516 111.61,30.416 C 110.652,30.205 111.24,29.982 112.749,29.982 C 114.303,29.982 114.886,30.225 113.812,30.427 L 113.375,30.509 L 113.375,34.339 L 113.726,34.59 C 114.059,34.827 114.435,34.919 114.894,34.876 C 115.238,34.843 115.374,34.149 115.373,32.431 C 115.371,30.661 115.333,30.512 114.869,30.441 C 114.7,30.415 114.544,30.301 114.522,30.188 C 114.486,30.005 114.654,29.982 115.99,29.982 C 117.51,29.982 118.064,30.188 117.157,30.415 C 116.65,30.543 116.628,30.632 116.627,32.642 C 116.625,34.609 116.523,35.081 116.004,35.544 C 115.566,35.934 114.561,35.889 113.897,35.449 L 113.375,35.103 L 113.375,35.48 C 113.375,35.938 113.13,35.959 112.187,35.585 Z M 119.581,35.691 C 116.824,34.851 117.334,29.794 120.176,29.794 C 121.242,29.794 122.359,30.748 122.579,31.845 C 122.691,32.405 122.415,32.416 122.067,31.865 C 120.925,30.055 119.062,30.994 119.062,33.379 C 119.062,35.059 120.625,36.076 121.044,34.667 C 121.229,34.042 121.324,33.921 121.662,33.88 C 122.463,33.784 122.725,34.363 122.218,35.109 C 121.762,35.782 120.67,36.022 119.581,35.691 Z M 124.943,35.658 C 123.906,35.278 123.322,34.248 123.32,32.794 C 123.315,29.761 126.531,28.589 127.879,31.133 C 128.379,32.077 128.043,32.671 127.527,31.753 C 126.692,30.267 124.374,31.342 124.374,33.215 C 124.374,33.314 124.935,33.357 126.249,33.357 L 128.124,33.357 L 128.124,33.959 C 128.124,35.367 126.507,36.231 124.943,35.658 Z M 129.723,35.601 C 128.646,35.032 128.738,33.511 129.896,32.737 C 130.312,32.459 130.707,32.232 130.772,32.232 C 131.559,32.232 132.112,30.739 131.421,30.476 C 130.645,30.181 129.843,30.693 129.488,31.711 C 129.208,32.513 129,32.195 129,30.967 L 129,29.827 L 129.343,29.893 C 129.532,29.93 129.981,29.901 130.341,29.829 C 132.363,29.425 133.683,31.23 132.464,32.731 C 132.381,32.835 131.834,33.166 131.25,33.467 C 129.832,34.198 129.558,34.588 130.119,35.068 C 130.706,35.571 131.51,35.273 131.892,34.411 C 132.286,33.518 132.5,33.675 132.5,34.857 C 132.5,35.865 132.388,36.07 132.034,35.716 L 131.49,35.716 C 130.901,35.922 130.251,35.879 129.723,35.601 Z M 138.085,35.691 C 137.191,35.416 136.662,34.569 137.022,33.992 C 137.367,33.439 138.125,33.735 138.125,34.425 C 138.125,35.179 139.135,35.553 139.555,34.954 C 140.047,34.251 139.854,33.922 138.594,33.32 C 137.26,32.683 136.881,32.329 136.788,31.633 C 136.582,30.106 137.916,29.346 139.25,30.231 C 139.63,30.484 139.827,30.554 139.86,30.449 C 140.134,29.555 141.999,30.027 141.999,30.991 C 141.999,31.287 141.783,31.3 141.477,31.024 C 141.125,30.705 141.096,30.829 141.028,32.983 C 140.954,35.294 140.88,35.481 139.947,35.715 C 139.259,35.89 138.707,35.882 138.085,35.691 Z M 142.773,35.551 C 141.726,35.161 141.547,34.857 142.366,34.857 C 142.812,34.857 142.875,34.589 142.875,32.669 C 142.875,30.783 142.814,30.516 142.36,30.416 C 141.42,30.21 141.985,29.982 143.437,29.982 C 144.894,29.982 145.447,30.211 144.531,30.436 C 144.024,30.56 144.003,30.641 144.002,32.489 C 144,34.387 144.151,34.723 145.086,34.898 C 145.908,35.051 146.056,34.749 146.106,32.8 C 146.159,30.727 146.118,30.528 145.625,30.419 C 145.419,30.374 145.25,30.257 145.25,30.159 C 145.25,29.962 148.052,29.887 148.172,30.082 C 148.254,30.214 148.101,30.416 147.906,30.432 C 147.82,30.439 147.67,30.453 147.573,30.463 C 147.429,30.478 147.387,30.891 147.354,32.638 C 147.318,34.477 147.278,34.851 147.078,35.181 C 146.562,36.032 145.176,36.043 144.282,35.204 L 144,34.938 L 144,35.398 C 144,35.953 143.892,35.966 142.773,35.551 Z M 168.47,35.707 C 167.115,35.347 166.278,32.911 166.995,31.419 C 168.048,29.23 170.434,29.218 171.489,31.396 C 171.923,32.293 171.462,32.638 171.011,31.754 C 170.37,30.499 168.422,30.952 168.005,32.454 C 167.743,33.397 167.67,33.356 169.656,33.358 C 171.76,33.36 171.803,33.376 171.64,34.101 C 171.33,35.482 170.055,36.127 168.47,35.707 Z M 180.157,35.649 C 178.323,35 177.916,31.644 179.515,30.359 C 180.829,29.303 182.528,29.735 183.177,31.291 C 183.572,32.235 183.252,32.618 182.763,31.788 C 181.943,30.398 179.625,31.241 179.625,32.929 L 179.625,33.35 L 181.468,33.385 L 183.312,33.419 L 183.304,34.011 C 183.286,35.419 181.757,36.216 180.157,35.649 Z M 189.187,35.659 C 187.394,35.011 186.888,32.161 188.286,30.577 C 189.489,29.214 191.76,29.61 192.571,31.324 C 193.842,34.012 191.816,36.607 189.187,35.659 Z M 194.562,35.704 C 193.251,35.266 192.795,34.857 193.619,34.857 C 194.119,34.857 194.124,34.82 194.124,31.293 C 194.124,27.846 194.102,27.732 193.419,27.732 C 193.188,27.732 193.117,27.674 193.149,27.513 C 193.172,27.393 193.232,27.308 193.283,27.325 C 193.333,27.343 194.022,27.357 194.812,27.357 C 196.29,27.357 196.847,27.592 195.824,27.784 C 195.59,27.828 195.365,27.951 195.324,28.057 C 195.215,28.343 195.237,30.32 195.347,30.145 C 195.628,29.705 196.774,29.611 197.48,29.971 C 199.95,31.231 199.587,35.857 197.018,35.857 C 196.323,35.857 195.534,35.387 195.339,34.857 C 195.3,34.753 195.265,34.936 195.259,35.263 C 195.249,35.898 195.211,35.922 194.562,35.704 Z M 200.437,35.553 C 199.595,35.239 199.341,34.857 199.976,34.857 C 200.462,34.857 200.496,34.704 200.496,32.544 C 200.496,30.7 200.462,30.539 200.064,30.463 C 199.927,30.437 199.796,30.318 199.773,30.199 C 199.735,30.003 199.868,29.982 201.115,29.982 C 202.522,29.982 203.106,30.241 202.136,30.436 C 201.666,30.529 201.628,30.691 201.627,32.631 L 201.624,34.219 L 202.031,34.523 C 203.382,35.536 203.876,34.964 203.873,32.391 C 203.871,30.642 203.844,30.541 203.342,30.415 C 202.454,30.193 202.986,29.982 204.437,29.982 C 205.893,29.982 206.448,30.211 205.531,30.436 C 205.025,30.56 205.004,30.641 205.002,32.489 L 204.999,34.185 L 205.356,34.527 C 206.117,35.256 206.972,35.011 207.136,34.019 C 207.432,32.215 207.215,30.598 206.655,30.436 C 205.731,30.172 206.188,29.982 207.75,29.982 C 209.312,29.982 209.821,30.202 208.843,30.454 L 208.437,30.559 L 208.374,32.74 C 208.305,35.158 208.243,35.377 207.543,35.669 C 206.723,36.012 205.697,35.743 205.146,35.043 C 204.9,34.73 204.875,34.722 204.875,34.956 C 204.875,35.935 202.962,36.1 202.031,35.2 L 201.624,34.807 L 201.624,35.332 C 201.624,35.953 201.55,35.968 200.437,35.553 Z M 211.147,35.652 C 209.245,34.957 208.975,31.575 210.714,30.239 C 211.986,29.261 213.926,29.976 214.371,31.587 C 214.589,32.379 214.189,32.487 213.774,31.748 C 212.94,30.265 210.624,31.37 210.624,33.251 C 210.624,33.306 211.482,33.366 212.531,33.385 L 214.437,33.419 L 214.411,33.97 C 214.347,35.361 212.688,36.217 211.147,35.652 Z M 215.562,35.553 C 214.72,35.239 214.467,34.857 215.099,34.857 C 215.565,34.857 215.625,34.607 215.625,32.669 C 215.625,30.783 215.564,30.516 215.11,30.416 C 214.152,30.205 214.74,29.982 216.249,29.982 C 217.76,29.982 218.312,30.188 217.407,30.415 C 216.903,30.542 216.879,30.638 216.876,32.496 C 216.874,34.607 217.388,35.34 218.499,34.814 L 218.812,34.666 L 218.847,32.6 L 218.88,30.535 L 218.479,30.415 C 217.562,30.139 217.929,29.982 219.489,29.982 C 221.01,29.982 221.6,30.204 220.638,30.416 C 220.163,30.52 220.128,30.683 220.126,32.83 C 220.125,34.997 219.953,35.498 219.131,35.745 C 218.506,35.932 217.644,35.717 217.188,35.261 L 216.875,34.948 L 216.875,35.402 C 216.875,35.953 216.694,35.974 215.562,35.553 Z M 232.875,35.709 C 232.703,35.637 232.351,35.492 232.093,35.386 C 231.515,35.149 231.486,34.886 232.031,34.834 L 232.437,34.794 L 232.472,32.919 C 232.514,30.73 232.483,30.536 232.063,30.43 C 231.18,30.209 231.748,29.982 233.187,29.982 C 234.689,29.982 235.129,30.176 234.22,30.436 C 233.727,30.577 233.642,30.92 233.632,32.801 L 233.625,34.057 L 234.04,34.46 C 234.486,34.893 235.243,35.037 235.536,34.746 C 235.642,34.64 235.687,33.991 235.687,32.575 L 235.687,30.554 L 235.281,30.437 C 234.356,30.172 234.812,29.982 236.375,29.982 C 237.636,29.982 237.875,30.012 237.875,30.172 C 237.875,30.284 237.72,30.394 237.5,30.438 L 237.125,30.513 L 237.12,32.153 C 237.113,34.687 236.961,35.301 236.253,35.667 C 235.551,36.031 234.442,35.736 233.896,35.043 L 233.625,34.698 L 233.625,35.277 C 233.625,35.907 233.508,35.974 232.875,35.709 Z M 239.922,35.654 C 237.451,34.778 237.605,30.516 240.132,29.844 C 240.819,29.661 241.141,29.731 241.883,30.222 C 242.532,30.652 243.292,31.99 243.034,32.247 C 242.847,32.434 242.67,32.302 242.427,31.792 C 241.608,30.064 239.375,31.22 239.375,33.373 C 239.375,35.134 241.178,36.001 241.555,34.42 C 241.755,33.58 242.874,33.646 242.874,34.497 C 242.874,35.529 241.305,36.145 239.922,35.654 Z M 171.875,35.475 C 171.875,35.403 172.038,35.287 172.236,35.218 C 172.602,35.09 173.229,34.002 173.615,32.827 C 173.7,32.569 173.905,32.102 174.072,31.788 C 174.238,31.475 174.379,31.123 174.384,31.006 C 174.399,30.712 174.903,29.823 175.091,29.762 C 175.234,29.715 175.658,30.508 176.069,31.594 C 177.11,34.339 177.708,35.475 178.012,35.287 C 178.074,35.248 178.125,35.305 178.125,35.412 C 178.125,35.572 177.947,35.607 177.125,35.607 C 176.145,35.607 175.799,35.443 176.437,35.283 C 176.855,35.178 176.93,35.482 175.791,32.67 C 175.434,31.787 175.319,31.69 175.199,32.168 C 175.155,32.339 174.959,32.831 174.762,33.262 C 174.026,34.866 173.976,35.232 174.495,35.232 C 174.638,35.232 174.75,35.314 174.75,35.419 C 174.75,35.575 174.507,35.607 173.312,35.607 C 172.389,35.607 171.875,35.559 171.875,35.475 Z M 89.044,34.925 C 89.226,34.756 89.375,34.536 89.375,34.435 C 89.375,34.335 89.409,34.163 89.451,34.054 C 89.517,33.882 89.369,33.856 88.326,33.856 C 87.162,33.856 87.125,33.865 87.129,34.138 C 87.141,35 88.403,35.519 89.044,34.925 Z M 103.098,35.037 C 103.629,34.664 103.749,34.221 103.748,32.644 L 103.746,31.169 L 103.297,30.878 C 102.794,30.552 102.478,30.578 101.954,30.991 C 100.277,32.31 101.387,36.235 103.098,35.037 Z M 109.134,34.866 C 109.349,34.651 109.5,34.368 109.5,34.179 L 109.5,33.856 L 107.25,33.856 L 107.25,34.227 C 107.25,35.059 108.513,35.488 109.134,34.866 Z M 126.144,35.097 C 126.376,34.972 126.75,34.287 126.75,33.985 C 126.75,33.906 126.292,33.856 125.553,33.856 C 124.257,33.856 124.339,33.799 124.551,34.546 C 124.701,35.074 125.603,35.386 126.144,35.097 Z M 151.945,34.849 C 152.308,34.47 152.313,34.449 152.349,32.818 L 152.387,31.169 L 151.946,30.874 C 150.736,30.063 149.488,31.856 149.87,33.856 C 150.111,35.119 151.191,35.635 151.945,34.849 Z M 169.719,34.983 C 170.052,34.779 170.124,34.657 170.124,34.296 L 170.124,33.856 L 168.999,33.856 C 167.754,33.856 167.676,33.921 168.088,34.617 C 168.445,35.221 169.089,35.366 169.719,34.983 Z M 181.485,34.888 C 181.686,34.699 181.885,34.39 181.927,34.201 L 182.004,33.856 L 180.815,33.856 C 179.663,33.856 179.625,33.865 179.628,34.138 C 179.641,35.03 180.826,35.509 181.485,34.888 Z M 190.723,35.036 C 191.606,34.417 191.948,32.006 191.294,31.013 C 190.423,29.692 189.086,30.718 188.805,32.923 C 188.595,34.574 189.678,35.768 190.723,35.036 Z M 212.499,35.012 C 212.672,34.892 212.822,34.737 212.834,34.667 C 212.846,34.597 212.894,34.386 212.941,34.198 L 213.027,33.856 L 211.826,33.856 C 211.165,33.856 210.624,33.886 210.624,33.923 C 210.624,34.849 211.775,35.517 212.499,35.012 Z M 197.217,34.471 C 198.441,33.106 197.953,30.448 196.479,30.448 C 195.52,30.448 195.249,30.925 195.249,32.617 L 195.249,33.998 L 195.705,34.428 C 196.294,34.984 196.747,34.996 197.217,34.471 Z M 139.749,32.223 C 139.749,31.309 139.68,31.154 139.142,30.865 C 137.87,30.185 137.536,31.954 138.784,32.761 C 139.643,33.317 139.749,33.257 139.749,32.223 Z M 21.687,32.405 C 21.412,32.3 21.018,32.166 20.812,32.107 C 20.232,31.94 19.476,31.647 19.062,31.43 C 18.856,31.322 18.596,31.233 18.483,31.232 C 18.286,31.231 17.7,31.021 16.937,30.673 C 16.73,30.58 16.309,30.433 15.999,30.346 C 15.69,30.261 15.24,30.09 15,29.969 C 14.759,29.848 14.337,29.685 14.062,29.607 C 13.45,29.433 12.671,29.137 12.242,28.912 C 12.066,28.82 11.779,28.72 11.607,28.688 C 11.091,28.594 10.113,28.237 9.831,28.04 C 9.687,27.94 9.44,27.856 9.282,27.856 C 8.988,27.856 8.916,27.829 8.062,27.395 C 7.787,27.256 7.253,27.07 6.875,26.983 C 6.496,26.896 6.047,26.746 5.874,26.651 C 5.703,26.555 4.915,26.252 4.125,25.977 C 3.334,25.702 2.668,25.421 2.646,25.354 C 2.622,25.287 2.475,25.231 2.317,25.231 C 1.769,25.231 1.776,25.37 1.707,13.419 C 1.671,7.094 1.624,1.78 1.602,1.611 C 1.574,1.39 1.629,1.288 1.795,1.254 C 2,1.213 2.239,1.3 3.154,1.75 C 3.273,1.809 3.455,1.857 3.557,1.857 C 3.66,1.857 4.011,1.978 4.34,2.125 C 5.557,2.674 7.381,3.401 8.358,3.726 C 8.796,3.872 9.358,4.093 9.608,4.218 C 9.858,4.344 10.221,4.484 10.416,4.531 C 10.611,4.578 11.122,4.782 11.553,4.986 C 11.984,5.19 12.453,5.356 12.595,5.356 C 12.738,5.356 12.873,5.4 12.895,5.455 C 12.918,5.508 13.5,5.767 14.187,6.029 C 14.874,6.292 15.549,6.556 15.687,6.619 C 15.824,6.68 16.302,6.866 16.749,7.032 C 17.568,7.335 18.939,7.866 19.749,8.193 C 19.99,8.29 20.337,8.452 20.519,8.55 C 20.701,8.65 20.941,8.731 21.052,8.731 C 21.162,8.731 21.351,8.785 21.47,8.849 C 21.889,9.076 23.11,9.607 23.211,9.607 C 23.266,9.606 23.903,9.84 24.624,10.126 C 25.347,10.412 26.134,10.723 26.375,10.817 C 26.615,10.911 26.971,11.071 27.166,11.172 C 27.36,11.274 27.598,11.356 27.693,11.356 C 27.861,11.356 28.491,11.604 29.124,11.919 C 29.297,12.004 29.775,12.19 30.187,12.333 C 30.6,12.475 31.166,12.704 31.446,12.84 C 31.725,12.978 32.119,13.13 32.321,13.178 C 32.522,13.227 32.743,13.308 32.812,13.358 C 32.881,13.409 33.471,13.657 34.125,13.91 C 35.158,14.31 35.684,14.522 36.812,14.994 C 36.95,15.052 37.794,15.386 38.687,15.737 C 39.581,16.089 40.365,16.428 40.43,16.492 C 40.496,16.555 40.676,16.606 40.83,16.606 C 40.984,16.606 41.142,16.659 41.181,16.723 C 41.221,16.786 41.46,16.906 41.712,16.99 C 41.965,17.074 42.429,17.257 42.742,17.398 C 43.055,17.54 43.381,17.668 43.464,17.682 C 43.746,17.731 45.156,18.476 45.612,18.817 C 47.415,20.163 47.399,21.484 45.561,22.828 C 45.216,23.079 44.379,23.482 44.199,23.482 C 44.087,23.482 43.701,23.638 43.341,23.829 C 42.981,24.02 42.438,24.25 42.133,24.341 C 41.828,24.431 41.289,24.669 40.935,24.868 C 40.581,25.068 40.174,25.231 40.029,25.231 C 39.885,25.231 39.679,25.32 39.571,25.428 C 39.463,25.536 39.375,25.594 39.375,25.555 C 39.375,25.517 39.176,25.597 38.934,25.734 C 38.691,25.87 38.43,25.981 38.353,25.981 C 38.221,25.981 37.627,26.239 36.582,26.748 C 36.318,26.876 36.034,26.982 35.951,26.982 C 35.87,26.982 35.58,27.098 35.307,27.241 C 35.035,27.383 34.477,27.61 34.068,27.744 C 33.658,27.878 33.293,28.028 33.255,28.078 C 33.162,28.204 32.026,28.732 31.851,28.732 C 31.773,28.732 31.309,28.921 30.822,29.152 C 30.334,29.384 29.755,29.613 29.535,29.661 C 29.316,29.71 29.007,29.847 28.849,29.966 C 28.692,30.085 28.309,30.262 27.999,30.36 C 27.69,30.457 27.128,30.693 26.75,30.882 C 26.372,31.073 25.986,31.229 25.892,31.23 C 25.798,31.231 25.488,31.35 25.204,31.495 C 24.142,32.034 23.975,32.107 23.8,32.107 C 23.702,32.107 23.496,32.172 23.342,32.251 C 22.512,32.68 22.428,32.688 21.687,32.405 Z M 244.562,31.264 C 244.092,31.149 243.968,30.511 244.319,30.01 C 244.715,29.444 245.625,29.849 245.625,30.592 C 245.625,31.105 245.148,31.407 244.562,31.264 Z M 171.192,9.525 C 171.057,9.485 170.818,9.368 170.66,9.265 C 170.184,8.953 167.749,8.887 167.124,9.169 C 166.67,9.374 166.488,9.381 164.97,9.244 C 164.058,9.162 162.862,9.069 162.312,9.037 C 161.762,9.005 160.89,8.953 160.374,8.92 C 159.859,8.887 158.593,8.829 157.562,8.79 C 156.531,8.751 154.759,8.637 153.624,8.537 C 152.49,8.437 150.908,8.329 150.108,8.296 C 149.309,8.263 148.497,8.177 148.303,8.104 C 148.11,8.03 147.105,7.915 146.07,7.847 C 143.805,7.7 141.616,7.454 141.417,7.324 C 141.336,7.273 140.043,7.117 138.541,6.979 C 137.04,6.841 135.643,6.668 135.437,6.593 C 134.996,6.434 133.382,6.279 130.437,6.111 C 129.268,6.045 127.918,5.905 127.437,5.801 C 126.956,5.696 126.422,5.609 126.249,5.607 C 126.078,5.605 125.712,5.522 125.437,5.422 C 125.162,5.323 124.656,5.24 124.312,5.237 C 123.699,5.233 122.55,5.017 121.312,4.673 C 120.969,4.578 120.209,4.436 119.625,4.358 C 119.04,4.279 118.337,4.112 118.062,3.985 C 117.787,3.858 117.429,3.715 117.267,3.668 C 116.679,3.495 116.013,2.76 116.112,2.393 C 116.361,1.463 118.551,1.189 121.374,1.734 C 122.051,1.864 124.109,2.095 125.035,2.144 C 125.295,2.157 125.549,2.231 125.598,2.307 C 125.757,2.553 126.223,2.731 126.71,2.734 C 126.972,2.736 127.435,2.795 127.737,2.865 C 128.04,2.935 129.756,3.009 131.55,3.032 C 133.875,3.061 135.099,3.129 135.812,3.27 C 136.362,3.379 137.571,3.564 138.5,3.682 C 139.428,3.799 140.44,3.97 140.75,4.063 C 141.059,4.154 141.509,4.23 141.75,4.231 C 141.99,4.232 142.384,4.285 142.625,4.349 C 142.865,4.413 143.766,4.526 144.624,4.6 C 146.274,4.744 147.495,4.886 149.586,5.178 C 150.286,5.276 151.412,5.356 152.088,5.356 C 152.765,5.356 153.767,5.41 154.315,5.476 C 154.863,5.542 156.051,5.654 156.955,5.724 C 157.859,5.794 158.843,5.905 159.143,5.973 C 159.669,6.091 162.434,6.326 164.625,6.439 C 165.209,6.468 166.081,6.551 166.562,6.622 C 167.043,6.693 168.337,6.796 169.437,6.853 C 170.537,6.909 171.803,6.988 172.25,7.029 C 172.696,7.069 174.075,7.134 175.312,7.173 C 176.55,7.211 177.787,7.302 178.062,7.375 C 178.337,7.446 180.024,7.557 181.812,7.618 C 185.832,7.758 185.607,7.753 186.812,7.729 C 187.362,7.718 188.266,7.761 188.82,7.824 C 190.574,8.026 198.029,7.907 198.198,7.675 C 198.276,7.569 198.435,7.482 198.553,7.482 C 198.67,7.482 198.861,7.432 198.977,7.372 C 199.273,7.216 203.555,7.104 204.026,7.239 C 204.263,7.307 204.857,7.299 205.551,7.218 C 207.914,6.942 208.125,6.936 208.125,7.141 C 208.125,7.346 207.87,7.482 207.486,7.482 C 207.351,7.482 207.211,7.561 207.174,7.659 C 207.117,7.805 206.596,7.837 204.237,7.841 C 201.15,7.846 201.125,7.85 201.125,8.288 C 201.125,8.607 200.916,8.731 200.383,8.731 C 200.193,8.731 199.874,8.785 199.674,8.849 C 199.475,8.914 198.693,8.994 197.937,9.026 C 197.18,9.059 195.887,9.146 195.062,9.219 C 194.237,9.293 193.028,9.381 192.375,9.416 C 190.605,9.509 171.477,9.607 171.192,9.525 Z M 203.25,8.68 C 203.25,8.568 203.404,8.421 203.593,8.353 C 203.782,8.287 204.035,8.175 204.154,8.107 C 204.636,7.829 205.217,8.097 205.053,8.521 C 205.001,8.659 204.822,8.715 204.458,8.71 C 204.171,8.704 203.782,8.742 203.593,8.793 C 203.32,8.866 203.25,8.844 203.25,8.68 Z M 206.094,8.645 C 205.794,8.567 205.817,8.142 206.124,8.044 C 206.67,7.871 207.074,8.233 206.724,8.581 C 206.571,8.735 206.474,8.745 206.094,8.645 Z M 211.281,7.485 C 210.712,7.241 211.071,6.857 211.869,6.856 C 212.181,6.856 212.581,6.78 212.757,6.688 C 213.338,6.384 214.749,6.307 214.749,6.578 C 214.749,6.936 214.492,7.107 213.953,7.107 C 213.675,7.107 213.36,7.194 213.237,7.305 C 212.976,7.542 211.688,7.66 211.281,7.485 Z" fill="#c38304" stroke="none" stroke-width="0.75" stroke-linejoin="miter" marker-start="none" marker-end="none" stroke-miterlimit="79.8403193612775"/>
     <path d="M 47.437,88.778 C 47.094,88.606 46.503,88.35 46.125,88.21 C 45.747,88.07 45.099,87.8 44.687,87.611 C 44.274,87.421 43.656,87.166 43.312,87.043 C 42.969,86.92 42.576,86.743 42.441,86.65 C 42.305,86.557 42.123,86.482 42.035,86.482 C 41.947,86.482 41.523,86.323 41.094,86.128 C 40.375,85.802 38.043,84.818 36.999,84.4 C 36.759,84.304 36.403,84.142 36.208,84.041 C 36.014,83.94 35.804,83.857 35.742,83.857 C 35.681,83.857 35.221,83.667 34.721,83.435 C 34.221,83.203 33.587,82.943 33.312,82.856 C 33.037,82.77 32.756,82.655 32.687,82.602 C 32.618,82.549 32.028,82.295 31.374,82.039 C 30.721,81.782 30.076,81.496 29.94,81.402 C 29.805,81.308 29.622,81.232 29.535,81.232 C 29.447,81.232 29.024,81.073 28.593,80.878 C 27.939,80.581 27.027,80.199 25.562,79.606 C 25.425,79.549 25.059,79.394 24.75,79.26 C 24.44,79.125 23.877,78.889 23.499,78.734 C 23.121,78.58 22.531,78.328 22.187,78.176 C 21.843,78.023 20.915,77.628 20.124,77.297 C 19.334,76.966 18.336,76.535 17.906,76.339 C 17.475,76.142 17.067,75.982 16.997,75.982 C 16.926,75.982 16.491,75.808 16.028,75.595 C 15.566,75.382 15.018,75.138 14.812,75.053 C 14.606,74.968 14.24,74.811 14,74.704 C 13.759,74.596 13.337,74.416 13.062,74.305 C 12.787,74.192 12.403,74.017 12.208,73.916 C 12.014,73.815 11.803,73.732 11.74,73.732 C 11.677,73.732 11.245,73.56 10.781,73.35 C 9.396,72.724 9.217,72.646 8.499,72.358 C 8.121,72.205 7.758,72.031 7.693,71.968 C 7.628,71.907 7.496,71.857 7.401,71.857 C 7.128,71.857 4.473,70.516 4.123,70.201 C 2.809,69.02 2.763,68.015 3.971,66.888 C 4.21,66.664 4.46,66.481 4.527,66.481 C 4.593,66.481 5.011,66.313 5.457,66.106 C 5.902,65.9 6.294,65.731 6.327,65.731 C 6.361,65.731 6.652,65.616 6.975,65.475 C 7.931,65.056 8.028,65.017 8.812,64.717 C 9.225,64.559 9.623,64.387 9.698,64.333 C 9.773,64.279 10.082,64.149 10.386,64.043 C 11.127,63.785 12.833,63.079 14.312,62.417 C 14.518,62.324 15.278,62.014 15.999,61.726 C 16.722,61.439 17.537,61.104 17.812,60.982 C 18.087,60.861 18.581,60.662 18.91,60.541 C 19.239,60.419 19.537,60.271 19.574,60.213 C 19.61,60.154 19.735,60.106 19.853,60.106 C 19.97,60.106 20.276,59.994 20.532,59.857 C 20.789,59.719 21.059,59.607 21.132,59.607 C 21.205,59.607 21.557,59.47 21.914,59.302 C 22.27,59.135 22.872,58.88 23.25,58.735 C 23.628,58.591 24.106,58.396 24.312,58.303 C 24.84,58.063 25.21,57.91 26,57.602 C 26.378,57.454 26.846,57.249 27.04,57.145 C 27.235,57.041 27.516,56.986 27.666,57.021 C 28.11,57.127 28.833,57.417 29.016,57.562 C 29.11,57.637 29.354,57.737 29.558,57.786 C 29.762,57.835 30.212,58.003 30.558,58.161 C 30.904,58.318 31.497,58.57 31.875,58.721 C 32.253,58.872 32.675,59.045 32.812,59.107 C 32.949,59.169 33.568,59.421 34.187,59.668 C 34.805,59.914 35.424,60.166 35.562,60.227 C 35.7,60.289 36.318,60.544 36.937,60.796 C 37.556,61.048 38.175,61.299 38.312,61.355 C 38.45,61.411 39.012,61.637 39.562,61.858 C 40.112,62.078 40.731,62.333 40.937,62.425 C 41.734,62.778 44.343,63.841 44.937,64.056 C 45.281,64.18 45.59,64.316 45.624,64.358 C 45.659,64.4 46.053,64.567 46.5,64.729 C 46.947,64.891 47.523,65.127 47.781,65.254 L 48.249,65.487 L 48.249,77.172 C 48.249,83.599 48.254,88.897 48.259,88.948 C 48.278,89.132 48.045,89.084 47.437,88.778 Z" fill="#fbbb14" stroke="none" stroke-width="0.75" stroke-linejoin="miter" marker-start="none" marker-end="none" stroke-miterlimit="79.8403193612775"/>
     <path d="M 1.583,68.149 C 1.392,67.958 1.49,44.906 1.684,44.161 C 1.959,43.106 2.897,42.065 4.187,41.383 C 4.854,41.031 7.361,39.982 7.543,39.979 C 7.623,39.979 8.081,39.781 8.562,39.542 C 9.043,39.303 9.506,39.107 9.59,39.106 C 9.674,39.106 10.04,38.971 10.402,38.805 C 10.765,38.639 11.568,38.294 12.187,38.039 C 12.806,37.783 13.804,37.357 14.406,37.09 C 15.008,36.824 15.572,36.607 15.66,36.607 C 15.747,36.607 15.93,36.534 16.065,36.446 C 16.201,36.358 16.65,36.154 17.062,35.995 C 17.906,35.669 18.51,35.419 19.062,35.167 C 19.609,34.917 21.271,34.216 21.562,34.114 C 21.699,34.065 22.065,33.91 22.374,33.77 C 22.684,33.63 23.19,33.415 23.499,33.292 C 23.809,33.169 24.414,32.908 24.843,32.712 C 25.274,32.517 25.659,32.356 25.7,32.356 C 25.782,32.356 26.562,32.026 26.9,31.849 C 27.017,31.787 27.636,31.531 28.275,31.279 C 28.914,31.028 29.548,30.745 29.684,30.652 C 29.82,30.558 30.047,30.481 30.19,30.481 C 30.333,30.481 30.503,30.43 30.568,30.367 C 30.633,30.304 31.194,30.046 31.812,29.794 C 32.431,29.541 33.229,29.199 33.585,29.033 C 33.942,28.867 34.269,28.732 34.311,28.732 C 34.416,28.732 35.484,28.264 35.894,28.038 C 36.076,27.939 36.333,27.856 36.462,27.856 C 36.593,27.856 36.753,27.806 36.819,27.744 C 36.884,27.682 37.5,27.399 38.187,27.115 C 38.874,26.831 39.535,26.545 39.654,26.478 C 39.774,26.411 39.934,26.356 40.011,26.356 C 40.089,26.356 40.497,26.197 40.92,26.002 C 41.342,25.808 41.912,25.562 42.187,25.456 C 45.156,24.312 46.56,23.407 47.712,21.897 C 48.356,21.053 48.337,20.851 48.438,29.808 C 48.573,41.949 48.519,44.335 48.081,45.289 C 47.475,46.609 45.339,48.375 43.987,48.672 C 43.788,48.715 43.625,48.803 43.625,48.867 C 43.625,48.93 43.56,48.982 43.482,48.982 C 43.404,48.982 43.108,49.089 42.826,49.22 C 41.874,49.662 40.19,50.336 39.812,50.426 C 39.606,50.475 39.353,50.587 39.249,50.676 C 39.147,50.764 38.907,50.876 38.717,50.923 C 38.527,50.971 38.341,51.059 38.304,51.121 C 38.266,51.181 38.145,51.232 38.034,51.232 C 37.924,51.232 37.419,51.428 36.912,51.669 C 36.405,51.91 35.922,52.107 35.838,52.107 C 35.755,52.107 35.349,52.269 34.937,52.467 C 33.885,52.972 32.403,53.602 31.812,53.797 C 31.537,53.887 30.96,54.135 30.529,54.346 C 30.098,54.559 29.646,54.732 29.523,54.732 C 29.4,54.732 29.246,54.784 29.181,54.849 C 29.115,54.913 28.612,55.145 28.062,55.363 C 27.512,55.582 26.713,55.923 26.286,56.121 C 25.86,56.32 25.466,56.481 25.411,56.481 C 25.319,56.479 23.919,57.064 22.625,57.643 C 22.315,57.782 21.725,58.022 21.312,58.177 C 20.178,58.603 18.231,59.422 17.651,59.719 C 17.367,59.863 17.053,59.982 16.953,59.982 C 16.853,59.982 16.443,60.142 16.041,60.338 C 15.036,60.829 13.296,61.549 12.656,61.739 C 12.363,61.825 12.125,61.937 12.125,61.987 C 12.125,62.037 11.829,62.172 11.469,62.286 C 11.107,62.401 10.408,62.689 9.914,62.926 C 9.42,63.163 8.932,63.357 8.831,63.357 C 8.729,63.357 8.318,63.52 7.917,63.72 C 7.515,63.92 6.962,64.15 6.687,64.231 C 4.899,64.759 3.072,66.13 2.232,67.576 C 1.858,68.22 1.749,68.315 1.583,68.149 Z M 219.056,61.173 C 218.956,60.934 218.874,60.707 218.874,60.667 C 218.874,60.628 218.678,60.175 218.437,59.661 C 218.196,59.146 218,58.672 218,58.606 C 218,58.54 217.808,58.077 217.574,57.577 C 217.105,56.579 216.533,55.269 215.812,53.544 C 215.554,52.925 215.153,52.009 214.921,51.506 C 214.689,51.004 214.5,50.539 214.5,50.471 C 214.5,50.404 214.338,50.028 214.141,49.634 C 213.944,49.241 213.74,48.778 213.688,48.607 C 213.636,48.435 213.404,47.885 213.172,47.385 C 212.94,46.885 212.746,46.407 212.742,46.323 C 212.712,45.743 211.536,44.412 210.841,44.172 C 210.252,43.968 210.125,43.873 210.125,43.64 L 210.125,43.357 L 215.874,43.357 L 215.874,43.644 C 215.874,43.894 215.779,43.951 215.154,44.08 C 213.542,44.413 213.522,44.939 215.006,48.073 C 215.208,48.501 215.375,48.937 215.375,49.042 C 215.375,49.207 215.819,49.231 218.81,49.231 L 222.245,49.231 L 222.328,48.888 C 222.374,48.699 222.59,48.151 222.808,47.669 C 224.06,44.908 223.976,44.246 222.343,44.015 C 221.952,43.96 221.874,43.9 221.874,43.653 L 221.874,43.357 L 229.125,43.357 L 229.125,43.669 C 229.125,43.909 229.059,43.982 228.843,43.984 C 227.816,43.994 225.875,46.2 225.875,47.357 C 225.875,47.416 225.685,47.875 225.453,48.379 C 225.222,48.882 224.989,49.434 224.936,49.606 C 224.883,49.778 224.679,50.253 224.482,50.66 C 224.286,51.067 224.124,51.459 224.124,51.529 C 224.124,51.6 223.934,52.082 223.702,52.601 C 223.249,53.611 222.735,54.823 222.375,55.732 C 222.252,56.041 221.886,56.913 221.561,57.669 C 221.237,58.426 220.837,59.397 220.674,59.829 C 219.96,61.713 219.456,62.131 219.056,61.173 Z M 194.25,60.931 C 194.25,60.663 194.321,60.62 194.906,60.541 C 196.758,60.29 196.687,60.618 196.687,52.231 C 196.687,43.913 196.703,43.981 194.807,43.981 C 194.295,43.981 194.25,43.956 194.25,43.669 L 194.25,43.357 L 208.115,43.357 L 208.257,43.888 C 208.335,44.18 208.581,44.982 208.805,45.669 C 209.203,46.891 209.499,47.987 209.499,48.233 C 209.499,48.756 208.887,48.287 208.504,47.472 C 207.42,45.162 206.531,44.699 203.057,44.631 C 200.067,44.572 199.704,44.656 199.539,45.441 C 199.405,46.068 199.407,58.207 199.54,59.139 C 199.658,59.962 200.404,60.481 201.47,60.481 C 202.171,60.481 202.374,60.583 202.374,60.932 L 202.374,61.231 L 194.25,61.231 L 194.25,60.931 Z M 228.875,60.856 C 228.875,60.503 228.903,60.481 229.371,60.481 C 230.094,60.481 231.1,59.976 231.788,59.266 L 232.389,58.646 L 232.343,51.97 C 232.287,43.829 232.325,43.981 230.402,43.981 C 229.923,43.981 229.875,43.953 229.875,43.669 L 229.875,43.357 L 236.25,43.357 L 236.25,43.654 C 236.25,43.932 236.194,43.956 235.463,44.002 C 234.385,44.071 233.941,44.394 233.76,45.239 C 233.505,46.424 233.578,57.23 233.838,56.853 C 233.955,56.683 234.121,56.488 234.207,56.419 C 234.294,56.35 234.494,56.115 234.651,55.895 C 234.972,55.447 236.186,53.94 236.865,53.147 C 237.111,52.86 237.463,52.438 237.647,52.21 C 237.831,51.981 238.172,51.569 238.404,51.294 C 238.636,51.019 239.189,50.344 239.632,49.795 C 240.075,49.246 240.522,48.699 240.624,48.579 C 240.728,48.46 240.963,48.178 241.146,47.953 C 241.329,47.728 241.695,47.282 241.959,46.963 C 242.477,46.332 242.613,46.162 243.472,45.076 C 243.784,44.68 244.087,44.356 244.145,44.356 C 244.203,44.356 244.252,44.287 244.255,44.2 C 244.265,43.875 245.213,42.982 245.548,42.982 L 245.874,42.982 L 245.883,51.2 C 245.888,55.72 245.93,59.515 245.977,59.633 C 246.146,60.058 246.87,60.457 247.634,60.545 C 248.309,60.624 248.375,60.658 248.375,60.931 L 248.375,61.231 L 242,61.231 L 242,60.927 C 242,60.657 242.067,60.613 242.593,60.547 C 244.458,60.315 244.395,60.54 244.458,53.731 L 244.509,48.169 L 243.885,48.856 C 243.541,49.235 243.258,49.586 243.255,49.637 C 243.252,49.688 242.856,50.177 242.375,50.723 C 241.893,51.269 241.5,51.773 241.5,51.843 C 241.5,51.912 241.427,52.014 241.338,52.069 C 241.25,52.124 240.817,52.619 240.377,53.169 C 239.936,53.719 239.405,54.372 239.194,54.619 C 238.984,54.868 238.643,55.285 238.437,55.549 C 238.231,55.813 237.89,56.229 237.68,56.473 C 237.47,56.719 236.939,57.369 236.5,57.919 C 236.062,58.469 235.615,59.016 235.508,59.134 C 235.4,59.253 234.974,59.769 234.562,60.283 L 233.812,61.215 L 231.343,61.223 L 228.875,61.231 L 228.875,60.856 Z M 249,60.944 C 249,60.67 249.067,60.626 249.594,60.554 C 251.529,60.289 251.43,60.712 251.473,52.562 C 251.52,43.906 251.536,43.981 249.56,43.981 C 249.042,43.981 249,43.957 249,43.66 L 249,43.338 L 254.406,43.387 C 260.248,43.441 260.275,43.443 262.028,44.181 C 268.477,46.895 268.74,57.223 262.437,60.245 C 260.839,61.011 259.716,61.137 253.906,61.2 L 249,61.254 L 249,60.944 Z M 259.5,59.478 C 264.288,57.326 265.383,50.014 261.482,46.244 C 259.842,44.66 257.418,44.044 254.967,44.589 L 254.247,44.75 L 254.28,52.21 L 254.312,59.669 L 254.874,59.822 C 256.034,60.139 258.426,59.96 259.5,59.478 Z M 219.255,56.2 C 219.413,55.84 219.667,55.235 219.82,54.856 C 220.695,52.684 220.986,51.994 221.212,51.544 C 221.351,51.269 221.502,50.89 221.547,50.701 L 221.629,50.356 L 216.029,50.356 L 216.204,50.866 C 216.301,51.146 216.512,51.638 216.673,51.96 C 216.835,52.281 217.011,52.684 217.063,52.857 C 217.116,53.029 217.348,53.575 217.579,54.07 C 217.81,54.565 217.999,55.015 217.998,55.069 C 217.997,55.241 218.797,56.857 218.884,56.857 C 218.929,56.857 219.096,56.561 219.255,56.2 Z M 190.65,24.971 C 189.99,24.486 189.974,24.172 190.562,23.286 C 190.803,22.923 191,22.586 191,22.537 C 191,22.487 191.105,22.215 191.234,21.933 C 191.362,21.65 191.539,21.194 191.626,20.919 C 191.714,20.644 191.812,20.347 191.845,20.257 C 191.889,20.14 191.784,20.154 191.466,20.305 C 190.99,20.533 190.517,20.481 190.205,20.169 C 190.102,20.066 189.957,19.981 189.884,19.981 C 189.809,19.981 189.748,19.939 189.747,19.888 C 189.745,19.837 189.486,19.513 189.171,19.169 C 187.053,16.855 186.837,13.831 188.733,13.034 C 189.822,12.576 190.498,12.922 192.049,14.731 C 192.222,14.934 192.378,15.225 192.984,16.482 C 193.905,18.389 193.943,21.186 193.074,23.034 C 192.91,23.383 192.694,23.866 192.594,24.106 C 192.087,25.329 191.495,25.593 190.65,24.971 Z M 200.889,25.211 C 200.597,24.864 199.749,23.507 199.749,23.386 C 199.749,23.244 199.533,22.818 199.224,22.357 C 199.109,22.185 198.921,21.763 198.804,21.419 C 198.689,21.076 198.468,20.531 198.312,20.209 C 198.158,19.888 197.994,19.426 197.948,19.183 C 197.903,18.94 197.784,18.585 197.683,18.393 C 197.583,18.201 197.499,17.932 197.496,17.794 C 197.494,17.656 197.409,17.435 197.308,17.302 C 197.207,17.168 197.124,16.88 197.124,16.661 C 197.124,16.442 197.04,16.024 196.937,15.732 C 196.557,14.655 196.857,13.411 197.636,12.829 C 198.181,12.422 198.322,12.615 198.553,14.083 C 198.669,14.817 198.816,15.592 198.882,15.803 C 198.946,16.014 198.999,16.298 198.999,16.434 C 198.999,16.57 199.05,16.735 199.113,16.801 C 199.176,16.866 199.348,17.34 199.497,17.857 C 199.77,18.8 199.899,19.114 200.622,20.607 C 201.225,21.852 201.569,22.426 202.25,23.33 C 202.593,23.787 202.875,24.26 202.875,24.381 C 202.875,24.881 201.2,25.581 200.889,25.211 Z M 209.375,24.391 C 208.149,24.313 206.837,23.319 206.17,21.962 C 206.023,21.663 205.784,21.178 205.638,20.884 C 205.494,20.589 205.374,20.271 205.374,20.175 C 205.374,20.079 205.194,19.965 204.969,19.921 C 203.598,19.651 203.234,18.773 204.512,18.824 C 204.947,18.841 205.008,18.813 204.933,18.631 C 204.885,18.515 204.795,18.206 204.734,17.946 C 204.672,17.686 204.569,17.377 204.505,17.259 C 204.441,17.14 204.186,16.201 203.939,15.169 C 203.691,14.138 203.427,13.053 203.351,12.758 C 203.167,12.036 203.152,10.746 203.327,10.633 C 203.403,10.585 203.507,10.414 203.556,10.255 C 203.769,9.573 204.736,9.647 204.564,10.332 C 204.504,10.57 204.528,10.622 204.675,10.567 C 204.799,10.519 204.84,10.552 204.795,10.668 C 204.704,10.906 204.961,12.174 205.239,12.856 C 205.545,13.606 205.749,14.269 205.749,14.505 C 205.749,14.611 205.854,14.973 205.983,15.309 C 206.212,15.908 206.388,16.453 206.81,17.887 C 207.057,18.723 207.11,18.769 207.924,18.854 C 209.009,18.969 209.071,19.981 207.994,19.981 C 207.399,19.981 207.4,20.057 208.016,21.218 C 208.214,21.589 208.374,21.955 208.374,22.033 C 208.374,22.236 208.986,23.107 209.129,23.107 C 209.196,23.107 209.25,22.878 209.25,22.598 C 209.25,21.526 209.88,21.234 210.377,22.075 C 210.751,22.708 211.145,23.971 211.055,24.253 C 210.98,24.492 210.966,24.493 209.375,24.391 Z M 141.399,23.324 C 140.895,22.716 140.852,20.453 141.342,20.265 C 141.576,20.176 142.125,20.34 142.125,20.5 C 142.125,20.62 142.574,21.195 143.193,21.867 C 143.46,22.158 143.417,22.396 143.031,22.752 C 142.256,23.466 141.684,23.666 141.399,23.324 Z M 203.025,23.332 C 202.942,23.249 202.872,23.066 202.868,22.925 C 202.864,22.784 202.76,22.42 202.636,22.116 C 202.296,21.276 202.739,19.966 203.292,20.179 C 203.556,20.28 205.001,22.047 204.996,22.261 C 204.98,22.876 203.417,23.724 203.025,23.332 Z M 122.738,21.076 C 122.524,20.783 122.292,20.404 122.222,20.232 C 121.904,19.457 121.59,18.611 121.364,17.926 C 121.229,17.516 120.951,16.827 120.747,16.393 C 120.542,15.961 120.375,15.469 120.375,15.301 C 120.375,15.133 120.327,14.967 120.268,14.93 C 119.922,14.716 119.083,11.514 119.095,10.449 C 119.101,9.861 119.61,8.809 119.915,8.752 C 120.338,8.673 120.583,9.082 120.864,10.329 C 121.014,10.997 121.196,11.712 121.268,11.919 C 121.341,12.125 121.427,12.435 121.46,12.607 C 121.493,12.778 121.597,13.088 121.691,13.294 C 121.785,13.501 121.959,14.007 122.076,14.419 C 122.193,14.832 122.356,15.253 122.436,15.357 C 122.517,15.46 122.66,15.741 122.754,15.982 C 122.972,16.542 124.812,18.747 125.262,18.988 C 125.463,19.096 125.463,19.066 125.254,18.511 C 124.617,16.815 124.475,16.492 124.308,16.353 C 124.207,16.27 124.125,16.127 124.125,16.037 C 124.125,15.947 123.768,15.511 123.332,15.069 C 122.379,14.102 122.295,13.927 122.658,13.672 C 123.404,13.15 125.136,13.976 126.072,15.301 C 128.349,18.524 127.098,21.649 124.391,19.499 L 123.845,19.066 L 124.375,19.905 L 124.905,20.745 L 124.618,21.051 C 124.359,21.326 123.69,21.604 123.282,21.606 C 123.196,21.607 122.952,21.367 122.738,21.076 Z M 134.854,20.575 C 134.543,20.323 134.25,19.822 134.25,19.541 C 134.25,19.399 134.184,19.215 134.103,19.135 C 133.947,18.979 133.771,18.529 133.359,17.232 C 133.218,16.785 133.042,16.279 132.97,16.107 C 132.833,15.777 132.651,15.055 132.542,14.409 C 132.489,14.098 132.551,13.95 132.857,13.644 C 133.564,12.936 134.25,13.027 134.25,13.828 C 134.25,14.093 134.332,14.418 134.433,14.551 C 134.534,14.685 134.62,14.878 134.625,14.982 C 134.649,15.566 136.167,17.607 136.578,17.607 C 136.625,17.607 136.856,17.382 137.091,17.107 C 137.56,16.558 137.831,16.492 138.242,16.825 C 138.694,17.192 138.726,19.784 138.282,20.075 C 137.912,20.317 137.18,20.019 136.935,19.525 C 136.791,19.236 135.918,18.232 135.81,18.232 C 135.711,18.232 136.227,19.203 136.373,19.293 C 136.707,19.499 136.493,19.985 135.906,20.354 C 135.237,20.773 135.128,20.797 134.854,20.575 Z M 149.297,20.388 C 149.183,20.199 148.998,19.903 148.885,19.732 C 148.422,19.019 147.517,16.977 147.381,16.334 C 147.318,16.037 147.207,15.569 147.135,15.294 C 146.652,13.432 147.624,12.315 148.575,13.638 C 148.836,13.999 149.248,14.531 149.493,14.821 C 149.737,15.111 150.162,15.621 150.437,15.954 C 150.999,16.635 151.48,17.043 151.59,16.932 C 151.632,16.891 151.577,16.759 151.469,16.639 C 150.143,15.153 152.055,12.395 153.447,13.786 C 153.555,13.894 153.699,13.981 153.767,13.981 C 154.14,13.981 153.795,14.671 153.402,14.709 L 152.993,14.748 L 153.075,15.396 C 153.121,15.752 153.199,16.1 153.249,16.169 C 153.299,16.238 153.38,16.463 153.429,16.669 C 153.522,17.065 154.131,18.11 154.533,18.564 C 155.249,19.373 153.62,20.203 152.658,19.519 C 152.484,19.395 152.228,19.228 152.088,19.148 C 151.839,19.003 151.314,18.469 150.257,17.279 C 149.701,16.654 149.739,16.827 150.363,17.764 C 151.259,19.109 151.26,19.423 150.371,20.326 C 149.881,20.822 149.571,20.84 149.297,20.388 Z M 172.5,20.292 C 169.743,18.833 168.303,15.536 169.764,14.029 C 170.33,13.445 170.691,13.495 171.613,14.286 C 171.909,14.539 171.913,14.539 171.818,14.294 C 171.765,14.157 171.675,13.853 171.619,13.62 C 171.564,13.386 171.461,13.16 171.392,13.117 C 171.322,13.074 171.148,12.765 171.005,12.431 C 170.657,11.619 169.972,10.73 169.432,10.39 C 168.516,9.812 167.726,9.67 167.459,10.035 C 167.19,10.402 166.695,10.247 166.65,9.78 C 166.582,9.09 169.409,8.824 170.768,9.392 C 171.6,9.74 173.022,11.85 173.652,13.669 C 173.794,14.082 173.987,14.53 174.08,14.665 C 174.174,14.801 174.249,14.989 174.249,15.082 C 174.249,15.278 174.779,16.657 175.452,18.214 C 176.034,19.56 174.279,19.601 173.665,18.256 C 173.04,16.888 170.874,14.469 170.874,15.139 C 170.874,16.264 173.103,18.935 174.351,19.306 C 175.074,19.521 175.219,19.696 175.005,20.095 C 174.618,20.82 173.642,20.896 172.5,20.292 Z M 112.101,20.302 C 108.674,18.6 107.855,13.358 110.981,13.132 C 111.928,13.063 112.506,13.38 113.772,14.663 C 114.705,15.608 114.057,16.161 113.076,15.258 C 111.976,14.244 111.202,14.023 110.903,14.638 C 110.68,15.097 110.748,15.176 111.793,15.675 C 113.274,16.382 113.892,17.05 114.363,18.449 C 114.702,19.452 114.698,19.488 114.219,19.942 C 113.425,20.693 113.025,20.761 112.101,20.302 Z M 130.176,20.237 C 129.399,19.858 128.25,18.777 128.25,18.424 C 128.25,18.318 128.199,18.232 128.137,18.232 C 127.825,18.232 127.14,16.305 127.129,15.398 C 127.107,13.462 129.357,12.418 130.85,13.673 C 131.988,14.63 132.375,15.064 132.375,15.386 C 132.375,15.871 131.858,15.859 131.361,15.362 C 130.146,14.147 129,13.901 129,14.855 C 129,15.288 129.037,15.345 129.373,15.419 C 129.579,15.464 129.779,15.553 129.818,15.616 C 129.858,15.679 129.986,15.732 130.103,15.732 C 130.416,15.732 131.697,16.834 132.108,17.455 C 133.465,19.51 132.256,21.252 130.176,20.237 Z M 144.676,20.311 C 143.533,19.658 142.125,18.168 142.125,17.613 C 142.125,17.5 142.077,17.353 142.017,17.288 C 140.77,15.902 141.879,13.107 143.676,13.107 C 145.162,13.107 147.681,15.554 146.352,15.708 C 146.099,15.737 145.949,15.653 145.733,15.36 C 145.17,14.598 143.855,14.046 143.553,14.445 C 143.166,14.955 143.319,15.196 144.343,15.686 C 146.7,16.814 147.844,19.138 146.541,20.152 C 145.849,20.692 145.408,20.73 144.676,20.311 Z M 157.427,20.243 C 156.487,19.808 155.451,18.768 155.175,17.982 C 155.067,17.672 154.898,17.234 154.801,17.008 C 154.578,16.49 154.578,16.1 154.8,15.579 C 154.896,15.354 155.07,14.938 155.186,14.655 C 155.466,13.972 156.454,13.207 157.054,13.207 C 157.542,13.207 159.098,14.169 159.431,14.677 C 159.875,15.355 159.495,15.85 158.896,15.377 C 157.826,14.531 156.97,14.391 156.858,15.044 C 156.637,16.336 157.177,17.886 158.184,18.849 C 158.991,19.621 159.564,19.158 158.802,18.35 C 158.046,17.551 158.859,16.722 159.765,17.367 C 161.821,18.832 159.786,21.336 157.427,20.243 Z M 163.311,20.24 C 161.316,19.262 159.823,16.327 160.445,14.604 C 160.906,13.324 162.408,12.672 163.39,13.326 C 164.235,13.888 164.472,14.072 164.956,14.541 C 165.242,14.817 165.487,15.128 165.502,15.232 C 165.606,15.956 165.09,15.907 164.175,15.106 C 163.019,14.095 162.125,13.988 162.125,14.86 C 162.125,15.288 162.163,15.345 162.498,15.419 C 162.704,15.464 162.904,15.553 162.943,15.616 C 162.982,15.679 163.1,15.732 163.205,15.732 C 163.396,15.732 164.874,16.827 164.875,16.969 C 164.875,17.01 165.013,17.205 165.183,17.401 C 165.708,18.013 166.02,19.378 165.718,19.754 C 165.047,20.593 164.326,20.738 163.311,20.24 Z M 178.062,20.151 C 177.65,19.906 177.274,19.64 177.227,19.562 C 177.181,19.483 176.951,19.211 176.717,18.957 C 174.906,16.993 174.873,14.206 176.649,13.282 C 177.711,12.73 179.837,14.002 180.673,15.69 C 180.872,16.091 181.088,16.525 181.153,16.654 C 181.64,17.619 181.208,19.573 180.5,19.606 C 180.396,19.611 180.089,19.838 179.815,20.11 C 179.21,20.715 179.018,20.72 178.062,20.151 Z M 184.562,20.41 C 183.809,20.037 183.585,19.87 182.967,19.222 C 181.067,17.23 180.833,14.533 182.464,13.425 C 183.591,12.659 185.865,13.888 186.705,15.717 C 186.883,16.103 187.101,16.56 187.19,16.732 C 187.352,17.046 187.41,17.533 187.387,18.381 C 187.375,18.825 186.778,19.604 186.449,19.606 C 186.387,19.606 186.122,19.831 185.86,20.107 C 185.346,20.648 185.138,20.697 184.562,20.41 Z M 210.711,20.263 C 207.233,18.396 206.63,13.107 209.895,13.107 C 210.888,13.107 212.874,14.614 212.874,15.367 C 212.874,15.895 212.367,15.868 211.837,15.313 C 210.719,14.142 209.499,13.915 209.499,14.878 C 209.499,15.183 209.577,15.276 209.968,15.437 C 210.988,15.857 211.297,16.044 211.92,16.613 C 212.588,17.223 212.666,17.343 213.111,18.442 C 213.458,19.296 213.447,19.406 212.968,19.903 C 212.197,20.704 211.685,20.786 210.711,20.263 Z M 119.478,20.2 C 119.392,20.046 119.226,19.75 119.109,19.544 C 118.991,19.338 118.776,18.944 118.63,18.669 C 117.91,17.305 117.624,17.342 117.624,18.798 C 117.624,20.023 117.462,20.224 116.39,20.327 C 115.166,20.445 115.114,20.057 115.972,17.169 L 116.343,15.919 L 115.963,15.516 C 115.754,15.295 115.17,14.818 114.666,14.458 C 113.998,13.981 113.75,13.727 113.75,13.525 C 113.75,12.653 114.994,13.074 116.527,14.463 C 116.85,14.756 116.871,14.759 116.953,14.533 C 117.237,13.746 117.909,13.08 118.348,13.15 C 119.311,13.307 119.451,13.788 118.862,14.922 C 118.285,16.032 118.324,16.27 119.242,17.232 C 119.668,17.679 120.105,18.213 120.213,18.419 C 120.321,18.625 120.515,18.928 120.642,19.092 C 120.968,19.51 120.933,19.918 120.546,20.223 C 120.111,20.564 119.674,20.555 119.478,20.2 Z M 139.845,19.388 C 139.128,18.634 138.383,16.271 138.376,14.729 C 138.373,14.088 139.434,12.991 139.751,13.308 C 139.818,13.375 139.926,13.68 139.992,13.986 C 140.241,15.14 140.42,15.732 140.52,15.732 C 140.578,15.732 140.625,15.83 140.625,15.95 C 140.626,16.071 140.698,16.309 140.787,16.482 C 140.874,16.654 141.045,17.054 141.165,17.373 C 141.285,17.691 141.494,18.051 141.629,18.173 C 142.019,18.526 141.933,18.883 141.352,19.329 C 140.706,19.826 140.277,19.843 139.845,19.388 Z M 201.434,19.334 C 200.856,18.698 200.532,17.767 200.127,15.577 C 199.908,14.391 200.06,13.974 200.907,13.425 C 201.367,13.127 201.582,13.314 201.663,14.081 C 201.776,15.165 202.938,18.025 203.376,18.295 C 203.838,18.58 203.018,19.561 202.215,19.687 C 201.877,19.739 201.751,19.682 201.434,19.334 Z M 191.837,18.151 C 191.797,17.764 191.705,17.386 191.632,17.314 C 191.559,17.241 191.499,17.085 191.499,16.967 C 191.499,16.848 191.417,16.593 191.316,16.398 C 191.214,16.203 191.034,15.819 190.915,15.544 C 190.797,15.269 190.475,14.805 190.2,14.513 C 188.674,12.891 188.964,15.49 190.538,17.544 C 191.629,18.968 191.936,19.111 191.837,18.151 Z M 112.755,18.008 C 112.35,17.383 111.249,16.358 111.249,16.606 C 111.249,17.08 112.004,18.037 112.749,18.507 C 113.201,18.792 113.202,18.698 112.755,18.008 Z M 131.25,18.552 C 131.25,18.452 131.195,18.337 131.128,18.296 C 131.061,18.255 130.914,18.027 130.801,17.789 C 130.689,17.551 130.555,17.356 130.505,17.356 C 130.454,17.356 130.197,17.147 129.934,16.891 C 129.658,16.624 129.435,16.489 129.406,16.573 C 129.331,16.8 129.974,17.815 130.416,18.168 C 130.634,18.342 130.869,18.537 130.937,18.601 C 131.122,18.775 131.25,18.755 131.25,18.552 Z M 145.625,18.49 C 145.625,18.243 143.916,16.399 143.796,16.518 C 143.608,16.706 144.534,18.036 145.125,18.427 C 145.663,18.784 145.625,18.779 145.625,18.49 Z M 164.375,18.678 C 164.375,18.396 163.688,17.413 163.192,16.985 C 162.477,16.367 162.34,16.477 162.815,17.287 C 163.209,17.96 164.375,18.999 164.375,18.678 Z M 179.75,17.872 C 179.75,16.124 178.08,13.72 177.309,14.358 C 176.737,14.834 178.291,18.357 179.073,18.357 C 179.154,18.357 179.289,18.441 179.375,18.544 C 179.663,18.891 179.75,18.735 179.75,17.872 Z M 185.558,16.392 C 184.822,14.842 183.531,13.802 183.253,14.535 C 182.9,15.463 184.062,17.65 185.375,18.529 L 185.687,18.737 L 185.723,17.779 C 185.751,17.091 185.703,16.699 185.558,16.392 Z M 211.875,18.616 C 211.875,18.552 211.798,18.423 211.705,18.33 C 211.612,18.237 211.458,18.019 211.362,17.845 C 211.069,17.317 210,16.405 210,16.684 C 210.001,17.107 210.732,18.077 211.374,18.509 C 211.734,18.75 211.875,18.78 211.875,18.616 Z M 213.372,15.523 C 212.807,13.974 212.803,13.909 213.236,13.476 C 214.159,12.553 216.244,14.063 215.402,15.044 C 214.751,15.803 213.576,16.081 213.372,15.523 Z" fill="#14442c" stroke="none" stroke-width="0.75" stroke-linejoin="miter" marker-start="none" marker-end="none" stroke-miterlimit="79.8403193612775"/>
     <path d="M 167.361,9.069 C 167.417,9.014 167.85,8.986 168.324,9.008 L 169.187,9.046 L 168.224,9.108 C 167.694,9.142 167.306,9.124 167.361,9.069 Z" fill="#805e0b" stroke="none" stroke-width="0.75" stroke-linejoin="miter" marker-start="none" marker-end="none" stroke-miterlimit="79.8403193612775"/>
     <path d="M 33.812,83.267 C 33.429,83.176 33.312,83.004 33.679,83.074 C 33.857,83.109 34.034,83.186 34.071,83.247 C 34.109,83.307 34.122,83.35 34.101,83.342 C 34.08,83.334 33.95,83.301 33.812,83.267 Z M 14.93,75.285 C 14.796,75.177 14.762,75.127 14.853,75.173 C 14.944,75.22 15.169,75.304 15.353,75.359 C 15.621,75.44 15.636,75.463 15.43,75.471 C 15.288,75.477 15.063,75.393 14.93,75.285 Z M 11.25,73.726 C 11.112,73.633 11.163,73.621 11.437,73.683 C 11.897,73.786 11.996,73.858 11.676,73.855 C 11.545,73.854 11.352,73.795 11.25,73.726 Z M 194.098,27.264 C 194.531,27.239 195.206,27.24 195.598,27.265 C 195.991,27.289 195.637,27.309 194.812,27.309 C 193.987,27.309 193.666,27.288 194.098,27.264 Z" fill="#946c0c" stroke="none" stroke-width="0.75" stroke-linejoin="miter" marker-start="none" marker-end="none" stroke-miterlimit="79.8403193612775"/>
    </g>
   </g>
  </g>
 </g>
</svg>
